  <svg
  aria-hidden="true"
  style="position: absolute; width: 0; height: 0; overflow: hidden;"
  version="1.1"
  xmlns="http://www.w3.org/2000/svg"
  xmlns:xlink="http://www.w3.org/1999/xlink"
>
  <defs>
    <symbol id="icon-heart" viewBox="0 0 32 32">
      <path
        stroke-linejoin="round"
        stroke-linecap="round"
        stroke-miterlimit="4"
        stroke-width="2.4615"
        d="M27.787 6.147c-0.681-0.681-1.49-1.222-2.38-1.591s-1.844-0.559-2.807-0.559c-0.963 0-1.917 0.19-2.807 0.559s-1.698 0.909-2.38 1.591l-1.413 1.413-1.413-1.413c-1.376-1.376-3.241-2.148-5.187-2.148s-3.811 0.773-5.187 2.148c-1.376 1.376-2.148 3.241-2.148 5.187s0.773 3.811 2.148 5.187l11.787 11.787 11.787-11.787c0.681-0.681 1.222-1.49 1.591-2.379s0.559-1.844 0.559-2.807-0.19-1.917-0.559-2.807c-0.369-0.89-0.909-1.699-1.591-2.38z"
      ></path>
    </symbol>
    <symbol id="icon-log-in-01" viewBox="0 0 32 32">
      <path
        stroke-linejoin="round"
        stroke-linecap="round"
        stroke-miterlimit="4"
        stroke-width="3.2"
        d="M20 4h1.6c2.24 0 3.36 0 4.216 0.436 0.753 0.383 1.364 0.995 1.748 1.748 0.436 0.856 0.436 1.976 0.436 4.216v11.2c0 2.24 0 3.36-0.436 4.216-0.384 0.753-0.995 1.364-1.748 1.748-0.856 0.436-1.976 0.436-4.216 0.436h-1.6"
      ></path>
      <path
        stroke-linejoin="round"
        stroke-linecap="round"
        stroke-miterlimit="4"
        stroke-width="3.2"
        d="M13.333 9.333l6.667 6.667M20 16l-6.667 6.667M20 16h-16"
      ></path>
    </symbol>
    <symbol id="icon-ukraine" viewBox="0 0 32 32">
      <path
        fill="#ffda44"
        style="fill: var(--color1, #ffda44)"
        d="M16 32c8.837 0 16-7.163 16-16s-7.163-16-16-16c-8.837 0-16 7.163-16 16s7.163 16 16 16z"
      ></path>
      <path
        fill="#338af3"
        style="fill: var(--color2, #338af3)"
        d="M0 16c0-8.836 7.163-16 16-16s16 7.163 16 16z"
      ></path>
    </symbol>
    <symbol id="border" viewBox="0 0 100 100" preserveAspectRatio="none">
      <rect x="0" y="0" width="100" height="100" rx="10" ry="10"
        stroke="#f4c550" stroke-width="1.5" stroke-dasharray="15 15" fill="none"/>
    </symbol>
    <symbol id="icon-x" viewBox="0 0 32 32">
      <path stroke-linejoin="round" stroke-linecap="round" stroke-miterlimit="4" stroke-width="2.5" d="M24 8l-16 16"></path>
      <path stroke-linejoin="round" stroke-linecap="round" stroke-miterlimit="4" stroke-width="2.5" d="M8 8l16 16"></path>
    </symbol>
    <symbol id="icon-eye-on" viewBox="0 0 40 32">
      <path fill="none" stroke="currentColor" stroke-linejoin="round" stroke-linecap="round" stroke-miterlimit="4" stroke-width="4" d="M29.9 25.9c-2.849 2.172-6.318 3.375-9.9 3.433-11.667 0-18.333-13.333-18.333-13.333 2.073-3.864 4.949-7.239 8.433-9.9M16.5 3.067c1.147-0.269 2.322-0.403 3.5-0.4 11.667 0 18.333 13.333 18.333 13.333-1.012 1.893-2.218 3.675-3.6 5.317M23.534 19.533c-0.458 0.491-1.010 0.885-1.623 1.159s-1.275 0.42-1.947 0.432-1.338-0.112-1.961-0.363c-0.623-0.251-1.188-0.626-1.663-1.1s-0.849-1.040-1.101-1.663-0.375-1.289-0.363-1.961c0.012-0.671 0.159-1.333 0.432-1.947s0.667-1.165 1.159-1.623"></path>
    </symbol>
<symbol id="icon-eye-off" viewBox="0 0 32 32">
  <path fill="none" stroke="currentColor" stroke-linejoin="round" stroke-linecap="round" stroke-miterlimit="4" stroke-width="3.6" d="M23.92 23.92c-2.279 1.737-5.055 2.7-7.92 2.747-9.333 0-14.667-10.667-14.667-10.667 1.659-3.091 3.959-5.791 6.747-7.92M13.2 5.653c0.918-0.215 1.857-0.322 2.8-0.32 9.333 0 14.667 10.667 14.667 10.667-0.809 1.514-1.775 2.94-2.88 4.253M18.827 18.827c-0.366 0.393-0.808 0.708-1.299 0.927s-1.020 0.336-1.557 0.346c-0.537 0.009-1.071-0.089-1.569-0.291s-0.95-0.5-1.33-0.88-0.679-0.832-0.88-1.33c-0.201-0.498-0.3-1.032-0.29-1.569s0.127-1.067 0.346-1.557 0.534-0.932 0.927-1.298"></path>
  <path fill="none" stroke="currentColor" stroke-linejoin="round" stroke-linecap="round" stroke-miterlimit="4" stroke-width="3.6" d="M1.333 1.333l29.333 29.333"></path>
</symbol>

<symbol id="icon-eye" viewBox="0 0 32 32">
  <path fill="none" stroke="currentColor" stroke-linejoin="round" stroke-linecap="round" stroke-miterlimit="4" stroke-width="3.6" d="M1.333 16s5.333-10.667 14.667-10.667 14.667 10.667 14.667 10.667-5.333 10.667-14.667 10.667-14.667-10.667-14.667-10.667z"></path>
  <path fill="none" stroke="currentColor" stroke-linejoin="round" stroke-linecap="round" stroke-miterlimit="4" stroke-width="3.6" d="M20 16c0 2.209-1.791 4-4 4s-4-1.791-4-4c0-2.209 1.791-4 4-4s4 1.791 4 4z"></path>
</symbol>


  </defs>
</svg>