  <svg
  aria-hidden="true"
  style="position: absolute; width: 0; height: 0; overflow: hidden;"
  version="1.1"
  xmlns="http://www.w3.org/2000/svg"
  xmlns:xlink="http://www.w3.org/1999/xlink"
>
  <defs>
    <symbol id="icon-heart" viewBox="0 0 32 32">
      <path
        stroke-linejoin="round"
        stroke-linecap="round"
        stroke-miterlimit="4"
        stroke-width="2.4615"
        d="M27.787 6.147c-0.681-0.681-1.49-1.222-2.38-1.591s-1.844-0.559-2.807-0.559c-0.963 0-1.917 0.19-2.807 0.559s-1.698 0.909-2.38 1.591l-1.413 1.413-1.413-1.413c-1.376-1.376-3.241-2.148-5.187-2.148s-3.811 0.773-5.187 2.148c-1.376 1.376-2.148 3.241-2.148 5.187s0.773 3.811 2.148 5.187l11.787 11.787 11.787-11.787c0.681-0.681 1.222-1.49 1.591-2.379s0.559-1.844 0.559-2.807-0.19-1.917-0.559-2.807c-0.369-0.89-0.909-1.699-1.591-2.38z"
      ></path>
    </symbol>
    <symbol id="icon-log-in-01" viewBox="0 0 32 32">
      <path
        stroke-linejoin="round"
        stroke-linecap="round"
        stroke-miterlimit="4"
        stroke-width="3.2"
        d="M20 4h1.6c2.24 0 3.36 0 4.216 0.436 0.753 0.383 1.364 0.995 1.748 1.748 0.436 0.856 0.436 1.976 0.436 4.216v11.2c0 2.24 0 3.36-0.436 4.216-0.384 0.753-0.995 1.364-1.748 1.748-0.856 0.436-1.976 0.436-4.216 0.436h-1.6"
      ></path>
      <path
        stroke-linejoin="round"
        stroke-linecap="round"
        stroke-miterlimit="4"
        stroke-width="3.2"
        d="M13.333 9.333l6.667 6.667M20 16l-6.667 6.667M20 16h-16"
      ></path>
    </symbol>
    <symbol id="icon-ukraine" viewBox="0 0 32 32">
      <path
        fill="#ffda44"
        style="fill: var(--color1, #ffda44)"
        d="M16 32c8.837 0 16-7.163 16-16s-7.163-16-16-16c-8.837 0-16 7.163-16 16s7.163 16 16 16z"
      ></path>
      <path
        fill="#338af3"
        style="fill: var(--color2, #338af3)"
        d="M0 16c0-8.836 7.163-16 16-16s16 7.163 16 16z"
      ></path>
    </symbol>
    <symbol id="border" viewBox="0 0 100 100" preserveAspectRatio="none">
      <rect x="0" y="0" width="100" height="100" rx="10" ry="10"
        stroke="#f4c550" stroke-width="1.5" stroke-dasharray="15 15" fill="none"/>
    </symbol>
    <symbol id="icon-x" viewBox="0 0 32 32">
      <path stroke-linejoin="round" stroke-linecap="round" stroke-miterlimit="4" stroke-width="2.5" d="M24 8l-16 16"></path>
      <path stroke-linejoin="round" stroke-linecap="round" stroke-miterlimit="4" stroke-width="2.5" d="M8 8l16 16"></path>
    </symbol>
    <symbol id="icon-eye-on" viewBox="0 0 40 32">
      <path fill="none" stroke="currentColor" stroke-linejoin="round" stroke-linecap="round" stroke-miterlimit="4" stroke-width="4" d="M29.9 25.9c-2.849 2.172-6.318 3.375-9.9 3.433-11.667 0-18.333-13.333-18.333-13.333 2.073-3.864 4.949-7.239 8.433-9.9M16.5 3.067c1.147-0.269 2.322-0.403 3.5-0.4 11.667 0 18.333 13.333 18.333 13.333-1.012 1.893-2.218 3.675-3.6 5.317M23.534 19.533c-0.458 0.491-1.010 0.885-1.623 1.159s-1.275 0.42-1.947 0.432-1.338-0.112-1.961-0.363c-0.623-0.251-1.188-0.626-1.663-1.1s-0.849-1.040-1.101-1.663-0.375-1.289-0.363-1.961c0.012-0.671 0.159-1.333 0.432-1.947s0.667-1.165 1.159-1.623"></path>
    </symbol>
<symbol id="icon-eye-off" viewBox="0 0 32 32">
  <path fill="none" stroke="currentColor" stroke-linejoin="round" stroke-linecap="round" stroke-miterlimit="4" stroke-width="3.6" d="M23.92 23.92c-2.279 1.737-5.055 2.7-7.92 2.747-9.333 0-14.667-10.667-14.667-10.667 1.659-3.091 3.959-5.791 6.747-7.92M13.2 5.653c0.918-0.215 1.857-0.322 2.8-0.32 9.333 0 14.667 10.667 14.667 10.667-0.809 1.514-1.775 2.94-2.88 4.253M18.827 18.827c-0.366 0.393-0.808 0.708-1.299 0.927s-1.020 0.336-1.557 0.346c-0.537 0.009-1.071-0.089-1.569-0.291s-0.95-0.5-1.33-0.88-0.679-0.832-0.88-1.33c-0.201-0.498-0.3-1.032-0.29-1.569s0.127-1.067 0.346-1.557 0.534-0.932 0.927-1.298"></path>
  <path fill="none" stroke="currentColor" stroke-linejoin="round" stroke-linecap="round" stroke-miterlimit="4" stroke-width="3.6" d="M1.333 1.333l29.333 29.333"></path>
</symbol>
<symbol id="icon-point-avatar" viewBox="0 0 32 32">
<path fill="#fff" style="fill: var(--color1, #fff)" d="M32 16c0 8.837-7.163 16-16 16s-16-7.163-16-16c0-8.837 7.163-16 16-16s16 7.163 16 16z"></path>
<path fill="#38cd3e" style="fill: var(--color2, #38cd3e)" d="M26.667 16c0 5.891-4.776 10.667-10.667 10.667s-10.667-4.776-10.667-10.667c0-5.891 4.776-10.667 10.667-10.667s10.667 4.776 10.667 10.667z"></path>
</symbol>
<symbol id="icon-book-open" viewBox="0 0 32 32">
<path stroke-linejoin="round" stroke-linecap="round" stroke-miterlimit="4" stroke-width="3" d="M29.333 8.267c0-1.493 0-2.24-0.291-2.811-0.256-0.502-0.664-0.91-1.165-1.165-0.571-0.291-1.317-0.291-2.811-0.291h-0.533c-2.987 0-4.48 0-5.621 0.581-1.004 0.511-1.819 1.327-2.331 2.331-0.581 1.141-0.581 2.634-0.581 5.621v15.467l0.133-0.2c0.926-1.389 1.389-2.084 2.001-2.587 0.542-0.445 1.166-0.779 1.837-0.983 0.758-0.23 1.593-0.23 3.262-0.23h1.833c1.494 0 2.24 0 2.811-0.291 0.502-0.256 0.91-0.664 1.165-1.165 0.291-0.57 0.291-1.317 0.291-2.811v-11.467z"></path>
<path stroke-linejoin="round" stroke-linecap="round" stroke-miterlimit="4" stroke-width="3" d="M2.667 8.267c0-1.493 0-2.24 0.291-2.811 0.256-0.502 0.664-0.91 1.165-1.165 0.57-0.291 1.317-0.291 2.811-0.291h0.533c2.987 0 4.48 0 5.621 0.581 1.004 0.511 1.819 1.327 2.331 2.331 0.581 1.141 0.581 2.634 0.581 5.621v15.467l-0.133-0.2c-0.926-1.389-1.389-2.084-2.001-2.587-0.542-0.445-1.166-0.779-1.837-0.983-0.758-0.23-1.593-0.23-3.262-0.23h-1.833c-1.493 0-2.24 0-2.811-0.291-0.502-0.256-0.91-0.664-1.165-1.165-0.291-0.57-0.291-1.317-0.291-2.811v-11.467z"></path>
</symbol>

<symbol id="icon-star" viewBox="0 0 34 32">
<path fill="#ffc531" style="fill: var(--color1, #ffc531); stroke: var(--color1, #ffc531)" stroke="#ffc531" stroke-linejoin="miter" stroke-linecap="butt" stroke-miterlimit="4" stroke-width="2.56" d="M13.227 10.020l3.84-7.277 3.84 7.277c0.34 0.644 0.959 1.093 1.675 1.217l8.108 1.403-5.735 5.9c-0.507 0.522-0.744 1.249-0.64 1.97l1.171 8.144-7.384-3.631c-0.653-0.321-1.418-0.321-2.071 0l-7.384 3.631 1.171-8.144c0.104-0.72-0.133-1.448-0.64-1.97l-5.735-5.9 8.108-1.403c0.717-0.124 1.336-0.574 1.675-1.217z"></path>
</symbol>

<symbol id="icon-heart" viewBox="0 0 38 32">
<path stroke-linejoin="round" stroke-linecap="round" stroke-miterlimit="4" stroke-width="2.9091" d="M32.839 4.355c-0.805-0.805-1.76-1.444-2.812-1.88s-2.179-0.66-3.318-0.66c-1.138 0-2.266 0.224-3.318 0.66s-2.007 1.075-2.812 1.88l-1.67 1.67-1.67-1.67c-1.626-1.626-3.831-2.539-6.13-2.539s-4.504 0.913-6.13 2.539c-1.626 1.626-2.539 3.831-2.539 6.13s0.913 4.504 2.539 6.13l13.93 13.93 13.93-13.93c0.805-0.805 1.444-1.76 1.88-2.812s0.66-2.179 0.66-3.318-0.224-2.266-0.66-3.318c-0.436-1.052-1.075-2.007-1.88-2.812z"></path>
</symbol>

<symbol id="icon-chevron-down" viewBox="0 0 32 32">
<path stroke-linejoin="round" stroke-linecap="round" stroke-miterlimit="4" stroke-width="3.2" d="M8 12l8 8 8-8"></path>
</symbol>

<symbol id="icon-menu" viewBox="0 0 32 32">
  <path d="M4 8h24M4 16h24M4 24h24" stroke="currentColor" stroke-width="2" stroke-linecap="round"/>
</symbol>

<symbol id="icon-user" viewBox="0 0 32 32">
<path d="M18 22.082v-1.649c2.203-1.241 4-4.337 4-7.432 0-4.971 0-9-6-9s-6 4.029-6 9c0 3.096 1.797 6.191 4 7.432v1.649c-6.784 0.555-12 3.888-12 7.918h28c0-4.030-5.216-7.364-12-7.918z"></path>
</symbol>

<symbol id="icon-paintbrush" viewBox="0 0 32 32">
<path d="M26.189 8.871c-1.747 2.416-4.335 5.147-6.593 7.433l-0.121 0.123-3.587-3.587 0.131-0.131c2.253-2.28 4.976-4.875 7.392-6.616 1.215-0.876 2.287-1.487 3.137-1.757 0.869-0.276 1.22-0.121 1.385 0.044 0.151 0.151 0.308 0.489 0.025 1.36-0.276 0.847-0.891 1.915-1.769 3.131zM14.533 14.315l3.473 3.473c-1.173 1.005-2.245 1.725-3.171 2.207-0.598-1.066-1.456-1.923-2.49-2.503l-0.032-0.017c0.48-0.92 1.204-1.976 2.22-3.16zM10.419 16.789c-0.367-0.074-0.789-0.117-1.221-0.117-1.778 0-3.388 0.721-4.552 1.888l-0 0c-0.7 0.7-1.173 1.736-1.507 2.772-0.341 1.060-0.573 2.243-0.721 3.343-0.126 0.869-0.209 1.891-0.23 2.929l-0 0.026c-0.005 0.4 0.004 0.756 0.029 1.037 0.012 0.139 0.029 0.283 0.059 0.413 0.013 0.067 0.036 0.151 0.071 0.24 0.027 0.068 0.099 0.237 0.253 0.393 0.156 0.156 0.327 0.227 0.396 0.253 0.088 0.035 0.173 0.057 0.237 0.072 0.132 0.028 0.276 0.047 0.413 0.059 0.281 0.025 0.639 0.033 1.039 0.028 0.804-0.011 1.853-0.080 2.955-0.229 1.1-0.149 2.281-0.38 3.343-0.72 1.035-0.333 2.071-0.808 2.772-1.509 1.166-1.165 1.887-2.774 1.887-4.552 0-0.433-0.043-0.857-0.125-1.266l0.007 0.041c1.612-0.8 3.496-2.157 5.495-4.18 2.259-2.285 4.945-5.113 6.791-7.667 0.917-1.269 1.677-2.539 2.051-3.685 0.365-1.123 0.445-2.435-0.512-3.392-0.96-0.959-2.271-0.896-3.407-0.535-1.153 0.367-2.429 1.124-3.701 2.040-2.56 1.845-5.381 4.543-7.644 6.833-2 2.024-3.373 3.861-4.176 5.485zM12.339 19.973c0.804 0.804 1.301 1.914 1.301 3.14s-0.497 2.336-1.301 3.14v0c-0.361 0.36-1.032 0.716-1.971 1.017-0.912 0.293-1.969 0.504-2.997 0.643-1.025 0.139-1.993 0.203-2.713 0.213-0.049 0.001-0.106 0.001-0.164 0.001-0.107 0-0.214-0.001-0.32-0.004l0.016 0c-0.002-0.090-0.004-0.197-0.004-0.303 0-0.057 0-0.115 0.001-0.172l-0 0.009c0.009-0.723 0.073-1.689 0.213-2.715 0.139-1.028 0.348-2.085 0.641-2.999 0.303-0.937 0.657-1.608 1.019-1.971 0.804-0.804 1.914-1.301 3.14-1.301s2.336 0.497 3.14 1.301v0z"></path>
</symbol>

  </defs>
</svg>